<svg xmlns="http://www.w3.org/2000/svg" xmlns:xlink="http://www.w3.org/1999/xlink" width="500" zoomAndPan="magnify" viewBox="0 0 375 374.999991" height="500" preserveAspectRatio="xMidYMid meet" version="1.0"><defs><g/><clipPath id="c8fed57601"><path d="M 140 113.59375 L 236 113.59375 L 236 145 L 140 145 Z M 140 113.59375 " clip-rule="nonzero"/></clipPath><clipPath id="250c8707c3"><path d="M 121 185 L 254 185 L 254 198.34375 L 121 198.34375 Z M 121 185 " clip-rule="nonzero"/></clipPath></defs><path fill="#000000" d="M 126.382812 146.058594 C 126.433594 144.96875 126.410156 141.621094 124.058594 138.960938 C 120.972656 135.460938 115.078125 134.574219 113.613281 136.5 C 112.5 137.972656 113.96875 141.089844 115.410156 142.839844 C 119.125 147.222656 125.726562 146.183594 126.382812 146.058594 Z M 126.382812 146.058594 " fill-opacity="1" fill-rule="nonzero"/><path fill="#000000" d="M 248.617188 146.058594 C 248.566406 144.96875 248.589844 141.621094 250.941406 138.960938 C 254.027344 135.460938 259.921875 134.574219 261.386719 136.5 C 262.5 137.972656 261.03125 141.089844 259.589844 142.839844 C 255.875 147.222656 249.273438 146.183594 248.617188 146.058594 Z M 248.617188 146.058594 " fill-opacity="1" fill-rule="nonzero"/><g clip-path="url(#c8fed57601)"><path fill="#000000" d="M 226.863281 144.816406 L 163.664062 144.816406 C 163.03125 144.816406 162.449219 144.839844 161.261719 144.816406 C 158.226562 144.816406 156.734375 144.816406 156.429688 144.664062 C 153.875 143.472656 155.898438 132.292969 156.960938 127.171875 C 155.394531 130.257812 154.03125 133.425781 152.863281 136.679688 C 151.167969 141.496094 150.765625 143.546875 148.894531 144.460938 C 147.023438 145.371094 143.757812 144.332031 142.089844 142.507812 C 139.789062 139.972656 139.433594 135.640625 141.40625 131.964844 L 144.570312 122.5625 C 145.832031 118.757812 149.625 113.6875 158.453125 113.6875 L 220.492188 113.6875 C 227.902344 113.6875 231.011719 118.835938 232.253906 122.6875 L 235.285156 132.117188 C 237.285156 138.328125 232.984375 144.816406 226.863281 144.816406 Z M 226.863281 144.816406 " fill-opacity="1" fill-rule="nonzero"/></g><path fill="#000000" d="M 158.65625 173.355469 C 158.503906 173.609375 152.484375 170.847656 146.414062 166.105469 C 136.980469 158.757812 131.695312 149.933594 131.949219 149.707031 C 132.203125 149.480469 134.300781 152.519531 139.839844 157.894531 C 141.710938 159.695312 144.820312 162.710938 149.097656 166.183594 C 154.886719 170.898438 158.757812 173.179688 158.65625 173.355469 Z M 158.65625 173.355469 " fill-opacity="1" fill-rule="nonzero"/><path fill="#000000" d="M 215.484375 173.355469 C 215.636719 173.609375 221.65625 170.847656 227.726562 166.105469 C 237.160156 158.757812 242.445312 149.933594 242.191406 149.707031 C 241.9375 149.480469 239.8125 152.519531 234.277344 157.894531 C 232.429688 159.695312 229.292969 162.710938 225.042969 166.183594 C 219.253906 170.898438 215.359375 173.179688 215.484375 173.355469 Z M 215.484375 173.355469 " fill-opacity="1" fill-rule="nonzero"/><path fill="#000000" d="M 149.726562 174.925781 C 149.324219 176.523438 141.433594 176.523438 134.628906 174.015625 C 132.554688 173.253906 123.652344 169.984375 121.578125 162.355469 C 121.351562 161.542969 120.492188 158.425781 121.707031 157.566406 C 123.398438 156.375 127.472656 160.886719 135.515625 166.257812 C 144.71875 172.367188 150.082031 173.558594 149.726562 174.925781 Z M 149.726562 174.925781 " fill-opacity="1" fill-rule="nonzero"/><path fill="#000000" d="M 225.550781 174.925781 C 225.953125 176.523438 233.84375 176.523438 240.648438 174.015625 C 242.722656 173.253906 251.625 169.984375 253.699219 162.355469 C 253.925781 161.542969 254.785156 158.425781 253.574219 157.566406 C 251.878906 156.375 247.78125 160.886719 239.761719 166.257812 C 230.558594 172.367188 225.195312 173.558594 225.550781 174.925781 Z M 225.550781 174.925781 " fill-opacity="1" fill-rule="nonzero"/><path fill="#000000" d="M 220.339844 179.238281 C 219.554688 178.375 218.542969 177.285156 216.851562 176.804688 C 216.054688 176.578125 215.246094 176.503906 214.421875 176.574219 L 187.941406 176.777344 L 161.488281 176.574219 C 160.664062 176.503906 159.855469 176.578125 159.058594 176.804688 C 157.367188 177.285156 156.355469 178.375 155.570312 179.238281 C 153.96875 181.027344 152.90625 183.097656 152.382812 185.445312 C 153.03125 184.265625 153.832031 183.203125 154.785156 182.253906 C 155.746094 181.316406 156.9375 180.148438 158.808594 179.589844 C 159.382812 179.40625 159.972656 179.296875 160.578125 179.261719 L 215.332031 179.261719 C 215.9375 179.296875 216.527344 179.40625 217.101562 179.589844 C 218.972656 180.148438 220.164062 181.316406 221.125 182.253906 C 222.078125 183.203125 222.878906 184.265625 223.527344 185.445312 C 223.148438 183.898438 222.339844 181.417969 220.339844 179.238281 Z M 220.339844 179.238281 " fill-opacity="1" fill-rule="nonzero"/><g clip-path="url(#250c8707c3)"><path fill="#000000" d="M 247.25 192.824219 C 245.292969 194.019531 243.195312 194.855469 240.953125 195.332031 C 238.460938 195.835938 235.957031 195.90625 233.441406 195.535156 C 231.417969 195.230469 231.820312 195.003906 224.941406 192.949219 C 222.136719 192.113281 220.746094 191.730469 218.949219 191.480469 C 217.398438 191.25 215.839844 191.148438 214.269531 191.175781 L 161.640625 191.175781 C 160.0625 191.148438 158.496094 191.25 156.9375 191.480469 C 155.164062 191.730469 153.773438 192.113281 150.96875 192.949219 C 144.089844 195.003906 144.46875 195.230469 142.46875 195.535156 C 139.953125 195.90625 137.449219 195.839844 134.957031 195.332031 C 132.714844 194.855469 130.617188 194.019531 128.660156 192.824219 C 125.761719 190.984375 123.519531 188.542969 121.933594 185.496094 C 122.832031 188.664062 124.492188 191.359375 126.914062 193.582031 C 130.480469 196.828125 134.351562 197.585938 136.296875 197.96875 C 139.144531 198.246094 141.980469 198.136719 144.796875 197.636719 C 147.078125 197.164062 149.3125 196.523438 151.5 195.710938 L 152.207031 195.433594 C 152.542969 195.28125 152.890625 195.15625 153.242188 195.054688 C 155.128906 194.460938 157.058594 194.148438 159.035156 194.113281 L 216.875 194.113281 C 218.851562 194.148438 220.78125 194.460938 222.667969 195.054688 C 223.019531 195.160156 223.367188 195.285156 223.703125 195.433594 L 224.410156 195.710938 C 226.597656 196.523438 228.832031 197.164062 231.113281 197.636719 C 233.929688 198.136719 236.765625 198.246094 239.613281 197.96875 C 241.558594 197.585938 245.429688 196.828125 248.96875 193.582031 C 251.40625 191.367188 253.078125 188.671875 253.976562 185.496094 C 252.390625 188.542969 250.148438 190.984375 247.25 192.824219 Z M 247.25 192.824219 " fill-opacity="1" fill-rule="nonzero"/></g><g fill="#000000" fill-opacity="1"><g transform="translate(95.721069, 230.642152)"><g><path d="M 7.429688 -21.675781 C 3.964844 -21.582031 1.238281 -18.828125 1.238281 -15.484375 L 1.238281 -6.191406 C 1.238281 -2.695312 4.117188 0 7.429688 0 L 16.722656 0 C 20.1875 0 22.914062 -2.910156 22.914062 -6.191406 L 19.816406 -6.191406 C 19.816406 -4.488281 18.425781 -3.097656 16.722656 -3.097656 L 7.429688 -3.097656 C 5.730469 -3.097656 4.335938 -4.488281 4.335938 -6.191406 L 4.335938 -15.484375 C 4.335938 -17.1875 5.730469 -18.578125 7.429688 -18.578125 L 16.722656 -18.578125 C 18.425781 -18.578125 19.816406 -17.1875 19.816406 -15.484375 L 22.914062 -15.484375 C 22.820312 -18.917969 20.035156 -21.675781 16.722656 -21.675781 Z M 7.429688 -21.675781 "/></g></g></g><g fill="#000000" fill-opacity="1"><g transform="translate(122.287638, 230.642152)"><g><path d="M 17.03125 -18.578125 C 18.734375 -18.578125 20.128906 -17.1875 20.128906 -15.484375 L 20.128906 -9.289062 L 4.644531 -9.289062 L 4.644531 -15.484375 C 4.644531 -17.1875 6.039062 -18.578125 7.742188 -18.578125 Z M 23.222656 -15.484375 C 23.128906 -18.917969 20.34375 -21.675781 17.03125 -21.675781 L 7.742188 -21.675781 C 4.273438 -21.675781 1.546875 -18.765625 1.546875 -15.484375 L 1.546875 0 L 4.644531 0 L 4.644531 -6.191406 L 20.128906 -6.191406 L 20.128906 0 L 23.222656 0 Z M 23.222656 -15.484375 "/></g></g></g><g fill="#000000" fill-opacity="1"><g transform="translate(149.783085, 230.642152)"><g><path d="M 20.128906 -12.386719 C 20.128906 -10.683594 18.734375 -9.289062 17.03125 -9.289062 L 4.644531 -9.289062 L 4.644531 -18.578125 L 17.03125 -18.578125 C 18.734375 -18.578125 20.128906 -17.1875 20.128906 -15.484375 Z M 23.222656 0 L 23.222656 -2.199219 L 18.917969 -6.503906 C 21.488281 -7.371094 23.222656 -9.753906 23.222656 -12.386719 L 23.222656 -15.484375 C 23.222656 -18.917969 20.28125 -21.675781 17.03125 -21.675781 L 1.546875 -21.675781 L 1.546875 0 L 4.644531 0 L 4.644531 -6.191406 L 14.832031 -6.191406 L 21.023438 0 Z M 23.222656 0 "/></g></g></g><g fill="#000000" fill-opacity="1"><g transform="translate(176.968908, 230.642152)"><g><path d="M 23.222656 -21.675781 L 18.859375 -21.675781 L 9.566406 -12.386719 L 4.644531 -12.386719 L 4.644531 -21.675781 L 1.546875 -21.675781 L 1.546875 0 L 4.644531 0 L 4.644531 -9.289062 L 9.566406 -9.289062 L 18.859375 0 L 23.222656 0 L 12.386719 -10.835938 Z M 23.222656 -21.675781 "/></g></g></g><g fill="#000000" fill-opacity="1"><g transform="translate(202.916213, 230.642152)"><g><path d="M 17.03125 -18.578125 C 18.734375 -18.578125 20.128906 -17.1875 20.128906 -15.484375 L 20.128906 -9.289062 L 4.644531 -9.289062 L 4.644531 -15.484375 C 4.644531 -17.1875 6.039062 -18.578125 7.742188 -18.578125 Z M 23.222656 -15.484375 C 23.128906 -18.917969 20.34375 -21.675781 17.03125 -21.675781 L 7.742188 -21.675781 C 4.273438 -21.675781 1.546875 -18.765625 1.546875 -15.484375 L 1.546875 0 L 4.644531 0 L 4.644531 -6.191406 L 20.128906 -6.191406 L 20.128906 0 L 23.222656 0 Z M 23.222656 -15.484375 "/></g></g></g><g fill="#000000" fill-opacity="1"><g transform="translate(230.411658, 230.642152)"><g><path d="M 20.128906 -12.386719 C 20.128906 -10.683594 18.734375 -9.289062 17.03125 -9.289062 L 4.644531 -9.289062 L 4.644531 -18.578125 L 17.03125 -18.578125 C 18.734375 -18.578125 20.128906 -17.1875 20.128906 -15.484375 Z M 23.222656 0 L 23.222656 -2.199219 L 18.917969 -6.503906 C 21.488281 -7.371094 23.222656 -9.753906 23.222656 -12.386719 L 23.222656 -15.484375 C 23.222656 -18.917969 20.28125 -21.675781 17.03125 -21.675781 L 1.546875 -21.675781 L 1.546875 0 L 4.644531 0 L 4.644531 -6.191406 L 14.832031 -6.191406 L 21.023438 0 Z M 23.222656 0 "/></g></g></g><g fill="#000000" fill-opacity="1"><g transform="translate(257.597477, 230.642152)"><g><path d="M 21.675781 -18.578125 L 21.675781 -21.675781 L 0 -21.675781 L 0 -18.578125 L 9.289062 -18.578125 L 9.289062 0 L 12.386719 0 L 12.386719 -18.578125 Z M 21.675781 -18.578125 "/></g></g></g></svg>